# xmcd
#
# Track frame offsets: 
#        150
#        15313
#        33836
#        50081
#        66846
#        85240
#        103424
#        118244
#        134386
#        151281
#        169865
#        186876
#        203556
#        206232
#
# Disc length: 2971 seconds
#
# Revision: 0
# Processed by: cddbd v1.5.2PL0 Copyright (c) Steve Scherf et al.
# Submitted via: ExactAudioCopy v0.95b4
#
DISCID=c60b990e
DTITLE=Gordon Chambers - Love Stories
DYEAR=2007
DGENRE=R&B
TTITLE0=The Next Time
TTITLE1=Stay Together
TTITLE2=To Love Again (Featuring Ledisi)
TTITLE3=Stay
TTITLE4=Get To Know
TTITLE5=I Wish I Was In Love
TTITLE6=Unfair
TTITLE7=Violins
TTITLE8=Bygones
TTITLE9=By My Side
TTITLE10=If You Love Me
TTITLE11=If It Wasn't For Your Love
TTITLE12=Dedication
TTITLE13=Still Blessing Me (Featuring Melonie Daniels)
EXTD=
EXTT0=
EXTT1=
EXTT2=
EXTT3=
EXTT4=
EXTT5=
EXTT6=
EXTT7=
EXTT8=
EXTT9=
EXTT10=
EXTT11=
EXTT12=
EXTT13=
PLAYORDER=
